<mxfile host="app.diagrams.net" modified="2022-05-17T17:32:59.175Z" agent="5.0 (Windows NT 10.0; Win64; x64) AppleWebKit/537.36 (KHTML, like Gecko) Chrome/101.0.4951.54 Safari/537.36" etag="KbVGrPnUd3WuHDryajDt" version="18.0.4" type="github">
  <diagram id="BNahHgGqrMYGz7Z8wHSc" name="第 1 页">
    <mxGraphModel dx="1065" dy="449" grid="1" gridSize="10" guides="1" tooltips="1" connect="1" arrows="1" fold="1" page="1" pageScale="1" pageWidth="827" pageHeight="1169" math="0" shadow="0">
      <root>
        <mxCell id="0" />
        <mxCell id="1" parent="0" />
        <mxCell id="wvLDC9qIyTglAwZuSIDg-21" style="edgeStyle=orthogonalEdgeStyle;rounded=0;orthogonalLoop=1;jettySize=auto;html=1;" edge="1" parent="1" source="wvLDC9qIyTglAwZuSIDg-5">
          <mxGeometry relative="1" as="geometry">
            <mxPoint x="325.5000000000002" y="110" as="targetPoint" />
          </mxGeometry>
        </mxCell>
        <mxCell id="wvLDC9qIyTglAwZuSIDg-5" value="开始" style="strokeWidth=2;html=1;shape=mxgraph.flowchart.terminator;whiteSpace=wrap;" vertex="1" parent="1">
          <mxGeometry x="293.5" y="44" width="64" height="37" as="geometry" />
        </mxCell>
        <mxCell id="wvLDC9qIyTglAwZuSIDg-23" style="edgeStyle=orthogonalEdgeStyle;rounded=0;orthogonalLoop=1;jettySize=auto;html=1;entryX=0;entryY=0.5;entryDx=0;entryDy=0;" edge="1" parent="1" source="wvLDC9qIyTglAwZuSIDg-6" target="wvLDC9qIyTglAwZuSIDg-22">
          <mxGeometry relative="1" as="geometry" />
        </mxCell>
        <mxCell id="wvLDC9qIyTglAwZuSIDg-25" style="edgeStyle=orthogonalEdgeStyle;rounded=0;orthogonalLoop=1;jettySize=auto;html=1;exitX=0;exitY=0.5;exitDx=0;exitDy=0;exitPerimeter=0;" edge="1" parent="1" source="wvLDC9qIyTglAwZuSIDg-6">
          <mxGeometry relative="1" as="geometry">
            <mxPoint x="280" y="140" as="targetPoint" />
            <Array as="points">
              <mxPoint x="180" y="330" />
              <mxPoint x="180" y="140" />
            </Array>
          </mxGeometry>
        </mxCell>
        <mxCell id="wvLDC9qIyTglAwZuSIDg-6" value="内容是否为空" style="strokeWidth=2;html=1;shape=mxgraph.flowchart.decision;whiteSpace=wrap;" vertex="1" parent="1">
          <mxGeometry x="279.75" y="290" width="96" height="79" as="geometry" />
        </mxCell>
        <mxCell id="wvLDC9qIyTglAwZuSIDg-18" style="edgeStyle=orthogonalEdgeStyle;rounded=0;orthogonalLoop=1;jettySize=auto;html=1;" edge="1" parent="1" source="wvLDC9qIyTglAwZuSIDg-12">
          <mxGeometry relative="1" as="geometry">
            <mxPoint x="326.4999999999999" y="200" as="targetPoint" />
          </mxGeometry>
        </mxCell>
        <mxCell id="wvLDC9qIyTglAwZuSIDg-12" value="输入关键字" style="rounded=1;whiteSpace=wrap;html=1;absoluteArcSize=1;arcSize=14;strokeWidth=2;" vertex="1" parent="1">
          <mxGeometry x="288.5" y="114" width="76" height="54" as="geometry" />
        </mxCell>
        <mxCell id="wvLDC9qIyTglAwZuSIDg-20" style="edgeStyle=orthogonalEdgeStyle;rounded=0;orthogonalLoop=1;jettySize=auto;html=1;entryX=0.5;entryY=0;entryDx=0;entryDy=0;entryPerimeter=0;" edge="1" parent="1" source="wvLDC9qIyTglAwZuSIDg-13" target="wvLDC9qIyTglAwZuSIDg-6">
          <mxGeometry relative="1" as="geometry" />
        </mxCell>
        <mxCell id="wvLDC9qIyTglAwZuSIDg-13" value="搜索" style="rounded=1;whiteSpace=wrap;html=1;absoluteArcSize=1;arcSize=14;strokeWidth=2;" vertex="1" parent="1">
          <mxGeometry x="290" y="202" width="75.5" height="48" as="geometry" />
        </mxCell>
        <mxCell id="wvLDC9qIyTglAwZuSIDg-22" value="发起请求" style="rounded=1;whiteSpace=wrap;html=1;absoluteArcSize=1;arcSize=14;strokeWidth=2;" vertex="1" parent="1">
          <mxGeometry x="430" y="305" width="74" height="49" as="geometry" />
        </mxCell>
        <mxCell id="wvLDC9qIyTglAwZuSIDg-24" value="否" style="text;html=1;align=center;verticalAlign=middle;resizable=0;points=[];autosize=1;strokeColor=none;fillColor=none;" vertex="1" parent="1">
          <mxGeometry x="385" y="310" width="30" height="20" as="geometry" />
        </mxCell>
        <mxCell id="wvLDC9qIyTglAwZuSIDg-26" value="是" style="text;html=1;align=center;verticalAlign=middle;resizable=0;points=[];autosize=1;strokeColor=none;fillColor=none;" vertex="1" parent="1">
          <mxGeometry x="215" y="310" width="30" height="20" as="geometry" />
        </mxCell>
      </root>
    </mxGraphModel>
  </diagram>
</mxfile>
